<mxfile host="Electron" agent="Mozilla/5.0 (Windows NT 10.0; Win64; x64) AppleWebKit/537.36 (KHTML, like Gecko) draw.io/24.7.8 Chrome/128.0.6613.36 Electron/32.0.1 Safari/537.36" version="24.7.8">
  <diagram name="Page-1" id="H5BKsdoFyp4-4sg7PVjW">
    <mxGraphModel dx="794" dy="528" grid="1" gridSize="10" guides="1" tooltips="1" connect="1" arrows="1" fold="1" page="1" pageScale="1" pageWidth="850" pageHeight="1100" math="0" shadow="0">
      <root>
        <mxCell id="0" />
        <mxCell id="1" parent="0" />
        <mxCell id="xndJqumdYf-anLgGboN_-5" style="edgeStyle=orthogonalEdgeStyle;rounded=0;orthogonalLoop=1;jettySize=auto;html=1;entryX=0;entryY=0.5;entryDx=0;entryDy=0;" edge="1" parent="1" source="xndJqumdYf-anLgGboN_-2" target="xndJqumdYf-anLgGboN_-3">
          <mxGeometry relative="1" as="geometry" />
        </mxCell>
        <mxCell id="xndJqumdYf-anLgGboN_-2" value="Login" style="rounded=0;whiteSpace=wrap;html=1;" vertex="1" parent="1">
          <mxGeometry x="120" y="120" width="120" height="60" as="geometry" />
        </mxCell>
        <mxCell id="xndJqumdYf-anLgGboN_-6" style="edgeStyle=orthogonalEdgeStyle;rounded=0;orthogonalLoop=1;jettySize=auto;html=1;exitX=1;exitY=0.5;exitDx=0;exitDy=0;entryX=0;entryY=0.5;entryDx=0;entryDy=0;" edge="1" parent="1" source="xndJqumdYf-anLgGboN_-3" target="xndJqumdYf-anLgGboN_-4">
          <mxGeometry relative="1" as="geometry" />
        </mxCell>
        <mxCell id="xndJqumdYf-anLgGboN_-3" value="Icecream Cafe Management" style="ellipse;whiteSpace=wrap;html=1;aspect=fixed;" vertex="1" parent="1">
          <mxGeometry x="356" y="85" width="130" height="130" as="geometry" />
        </mxCell>
        <mxCell id="xndJqumdYf-anLgGboN_-4" value="Logout" style="rounded=0;whiteSpace=wrap;html=1;" vertex="1" parent="1">
          <mxGeometry x="590" y="120" width="120" height="60" as="geometry" />
        </mxCell>
        <mxCell id="xndJqumdYf-anLgGboN_-7" value="Level 0" style="text;html=1;align=center;verticalAlign=middle;whiteSpace=wrap;rounded=0;" vertex="1" parent="1">
          <mxGeometry x="109" y="54" width="60" height="30" as="geometry" />
        </mxCell>
        <mxCell id="xndJqumdYf-anLgGboN_-8" value="Level 1" style="text;html=1;align=center;verticalAlign=middle;whiteSpace=wrap;rounded=0;" vertex="1" parent="1">
          <mxGeometry x="109" y="260" width="60" height="30" as="geometry" />
        </mxCell>
        <mxCell id="xndJqumdYf-anLgGboN_-16" value="" style="edgeStyle=orthogonalEdgeStyle;rounded=0;orthogonalLoop=1;jettySize=auto;html=1;" edge="1" parent="1" source="xndJqumdYf-anLgGboN_-14" target="xndJqumdYf-anLgGboN_-15">
          <mxGeometry relative="1" as="geometry" />
        </mxCell>
        <mxCell id="xndJqumdYf-anLgGboN_-18" value="" style="edgeStyle=orthogonalEdgeStyle;rounded=0;orthogonalLoop=1;jettySize=auto;html=1;" edge="1" parent="1" source="xndJqumdYf-anLgGboN_-14" target="xndJqumdYf-anLgGboN_-17">
          <mxGeometry relative="1" as="geometry" />
        </mxCell>
        <mxCell id="xndJqumdYf-anLgGboN_-14" value="Login" style="rounded=0;whiteSpace=wrap;html=1;" vertex="1" parent="1">
          <mxGeometry x="120" y="320" width="120" height="60" as="geometry" />
        </mxCell>
        <mxCell id="xndJqumdYf-anLgGboN_-20" value="" style="edgeStyle=orthogonalEdgeStyle;rounded=0;orthogonalLoop=1;jettySize=auto;html=1;" edge="1" parent="1" source="xndJqumdYf-anLgGboN_-15" target="xndJqumdYf-anLgGboN_-19">
          <mxGeometry relative="1" as="geometry" />
        </mxCell>
        <mxCell id="xndJqumdYf-anLgGboN_-15" value="Staf_Login" style="whiteSpace=wrap;html=1;rounded=0;" vertex="1" parent="1">
          <mxGeometry x="320" y="320" width="120" height="60" as="geometry" />
        </mxCell>
        <mxCell id="xndJqumdYf-anLgGboN_-25" value="" style="edgeStyle=orthogonalEdgeStyle;rounded=0;orthogonalLoop=1;jettySize=auto;html=1;entryX=0;entryY=0.5;entryDx=0;entryDy=0;" edge="1" parent="1" source="xndJqumdYf-anLgGboN_-17" target="xndJqumdYf-anLgGboN_-24">
          <mxGeometry relative="1" as="geometry">
            <Array as="points">
              <mxPoint x="180" y="600" />
            </Array>
          </mxGeometry>
        </mxCell>
        <mxCell id="xndJqumdYf-anLgGboN_-17" value="Admin_Login" style="whiteSpace=wrap;html=1;rounded=0;" vertex="1" parent="1">
          <mxGeometry x="120" y="460" width="120" height="60" as="geometry" />
        </mxCell>
        <mxCell id="xndJqumdYf-anLgGboN_-21" style="edgeStyle=orthogonalEdgeStyle;rounded=0;orthogonalLoop=1;jettySize=auto;html=1;exitX=0;exitY=0.5;exitDx=0;exitDy=0;entryX=1;entryY=0.5;entryDx=0;entryDy=0;" edge="1" parent="1" source="xndJqumdYf-anLgGboN_-19" target="xndJqumdYf-anLgGboN_-17">
          <mxGeometry relative="1" as="geometry" />
        </mxCell>
        <mxCell id="xndJqumdYf-anLgGboN_-23" value="" style="edgeStyle=orthogonalEdgeStyle;rounded=0;orthogonalLoop=1;jettySize=auto;html=1;" edge="1" parent="1" source="xndJqumdYf-anLgGboN_-19" target="xndJqumdYf-anLgGboN_-22">
          <mxGeometry relative="1" as="geometry" />
        </mxCell>
        <mxCell id="xndJqumdYf-anLgGboN_-19" value="Order IceCream" style="ellipse;whiteSpace=wrap;html=1;rounded=0;" vertex="1" parent="1">
          <mxGeometry x="340" y="450" width="80" height="80" as="geometry" />
        </mxCell>
        <mxCell id="xndJqumdYf-anLgGboN_-22" value="Log_Out" style="whiteSpace=wrap;html=1;rounded=0;" vertex="1" parent="1">
          <mxGeometry x="480" y="460" width="120" height="60" as="geometry" />
        </mxCell>
        <mxCell id="xndJqumdYf-anLgGboN_-27" style="edgeStyle=orthogonalEdgeStyle;rounded=0;orthogonalLoop=1;jettySize=auto;html=1;exitX=0.5;exitY=0;exitDx=0;exitDy=0;entryX=0.5;entryY=1;entryDx=0;entryDy=0;" edge="1" parent="1" source="xndJqumdYf-anLgGboN_-24" target="xndJqumdYf-anLgGboN_-19">
          <mxGeometry relative="1" as="geometry">
            <Array as="points">
              <mxPoint x="300" y="540" />
              <mxPoint x="380" y="540" />
            </Array>
          </mxGeometry>
        </mxCell>
        <mxCell id="xndJqumdYf-anLgGboN_-29" value="" style="edgeStyle=orthogonalEdgeStyle;rounded=0;orthogonalLoop=1;jettySize=auto;html=1;" edge="1" parent="1" source="xndJqumdYf-anLgGboN_-24" target="xndJqumdYf-anLgGboN_-28">
          <mxGeometry relative="1" as="geometry">
            <Array as="points">
              <mxPoint x="300" y="650" />
              <mxPoint x="180" y="650" />
            </Array>
          </mxGeometry>
        </mxCell>
        <mxCell id="xndJqumdYf-anLgGboN_-31" value="" style="edgeStyle=orthogonalEdgeStyle;rounded=0;orthogonalLoop=1;jettySize=auto;html=1;" edge="1" parent="1" source="xndJqumdYf-anLgGboN_-24" target="xndJqumdYf-anLgGboN_-30">
          <mxGeometry relative="1" as="geometry" />
        </mxCell>
        <mxCell id="xndJqumdYf-anLgGboN_-33" value="" style="edgeStyle=orthogonalEdgeStyle;rounded=0;orthogonalLoop=1;jettySize=auto;html=1;" edge="1" parent="1" source="xndJqumdYf-anLgGboN_-24" target="xndJqumdYf-anLgGboN_-32">
          <mxGeometry relative="1" as="geometry">
            <Array as="points">
              <mxPoint x="300" y="650" />
              <mxPoint x="440" y="650" />
            </Array>
          </mxGeometry>
        </mxCell>
        <mxCell id="xndJqumdYf-anLgGboN_-35" value="" style="edgeStyle=orthogonalEdgeStyle;rounded=0;orthogonalLoop=1;jettySize=auto;html=1;exitX=0.5;exitY=1;exitDx=0;exitDy=0;" edge="1" parent="1" source="xndJqumdYf-anLgGboN_-24" target="xndJqumdYf-anLgGboN_-34">
          <mxGeometry relative="1" as="geometry">
            <Array as="points">
              <mxPoint x="300" y="650" />
              <mxPoint x="570" y="650" />
            </Array>
          </mxGeometry>
        </mxCell>
        <mxCell id="xndJqumdYf-anLgGboN_-24" value="Admin Panel" style="ellipse;whiteSpace=wrap;html=1;rounded=0;" vertex="1" parent="1">
          <mxGeometry x="260" y="560" width="80" height="80" as="geometry" />
        </mxCell>
        <mxCell id="xndJqumdYf-anLgGboN_-28" value="Add Item" style="whiteSpace=wrap;html=1;rounded=0;" vertex="1" parent="1">
          <mxGeometry x="120" y="700" width="120" height="60" as="geometry" />
        </mxCell>
        <mxCell id="xndJqumdYf-anLgGboN_-30" value="Edit Item" style="whiteSpace=wrap;html=1;rounded=0;" vertex="1" parent="1">
          <mxGeometry x="250" y="700" width="120" height="60" as="geometry" />
        </mxCell>
        <mxCell id="xndJqumdYf-anLgGboN_-32" value="Delete Item" style="whiteSpace=wrap;html=1;rounded=0;" vertex="1" parent="1">
          <mxGeometry x="380" y="700" width="120" height="60" as="geometry" />
        </mxCell>
        <mxCell id="xndJqumdYf-anLgGboN_-34" value="Stock Manage" style="whiteSpace=wrap;html=1;rounded=0;" vertex="1" parent="1">
          <mxGeometry x="510" y="700" width="120" height="60" as="geometry" />
        </mxCell>
        <mxCell id="xndJqumdYf-anLgGboN_-36" value="Level 2" style="text;html=1;align=center;verticalAlign=middle;whiteSpace=wrap;rounded=0;" vertex="1" parent="1">
          <mxGeometry x="109" y="850" width="60" height="30" as="geometry" />
        </mxCell>
        <mxCell id="xndJqumdYf-anLgGboN_-39" value="" style="edgeStyle=orthogonalEdgeStyle;rounded=0;orthogonalLoop=1;jettySize=auto;html=1;" edge="1" parent="1" source="xndJqumdYf-anLgGboN_-37" target="xndJqumdYf-anLgGboN_-38">
          <mxGeometry relative="1" as="geometry" />
        </mxCell>
        <mxCell id="xndJqumdYf-anLgGboN_-41" value="" style="edgeStyle=orthogonalEdgeStyle;rounded=0;orthogonalLoop=1;jettySize=auto;html=1;" edge="1" parent="1" source="xndJqumdYf-anLgGboN_-37" target="xndJqumdYf-anLgGboN_-40">
          <mxGeometry relative="1" as="geometry" />
        </mxCell>
        <mxCell id="xndJqumdYf-anLgGboN_-37" value="Login" style="rounded=0;whiteSpace=wrap;html=1;" vertex="1" parent="1">
          <mxGeometry x="120" y="900" width="120" height="60" as="geometry" />
        </mxCell>
        <mxCell id="xndJqumdYf-anLgGboN_-43" value="" style="edgeStyle=orthogonalEdgeStyle;rounded=0;orthogonalLoop=1;jettySize=auto;html=1;" edge="1" parent="1" source="xndJqumdYf-anLgGboN_-38" target="xndJqumdYf-anLgGboN_-42">
          <mxGeometry relative="1" as="geometry" />
        </mxCell>
        <mxCell id="xndJqumdYf-anLgGboN_-38" value="Staf_Login" style="whiteSpace=wrap;html=1;rounded=0;" vertex="1" parent="1">
          <mxGeometry x="320" y="900" width="120" height="60" as="geometry" />
        </mxCell>
        <mxCell id="xndJqumdYf-anLgGboN_-54" value="" style="edgeStyle=orthogonalEdgeStyle;rounded=0;orthogonalLoop=1;jettySize=auto;html=1;" edge="1" parent="1" source="xndJqumdYf-anLgGboN_-40" target="xndJqumdYf-anLgGboN_-53">
          <mxGeometry relative="1" as="geometry" />
        </mxCell>
        <mxCell id="xndJqumdYf-anLgGboN_-40" value="Admin_Login" style="whiteSpace=wrap;html=1;rounded=0;" vertex="1" parent="1">
          <mxGeometry x="200" y="1040" width="120" height="60" as="geometry" />
        </mxCell>
        <mxCell id="xndJqumdYf-anLgGboN_-67" value="" style="edgeStyle=orthogonalEdgeStyle;rounded=0;orthogonalLoop=1;jettySize=auto;html=1;" edge="1" parent="1" source="xndJqumdYf-anLgGboN_-42" target="xndJqumdYf-anLgGboN_-66">
          <mxGeometry relative="1" as="geometry" />
        </mxCell>
        <mxCell id="xndJqumdYf-anLgGboN_-42" value="Order IceCream" style="ellipse;whiteSpace=wrap;html=1;rounded=0;" vertex="1" parent="1">
          <mxGeometry x="385" y="1030" width="80" height="80" as="geometry" />
        </mxCell>
        <mxCell id="xndJqumdYf-anLgGboN_-44" value="" style="endArrow=none;html=1;rounded=0;" edge="1" parent="1">
          <mxGeometry width="50" height="50" relative="1" as="geometry">
            <mxPoint x="500" y="960" as="sourcePoint" />
            <mxPoint x="640" y="960" as="targetPoint" />
          </mxGeometry>
        </mxCell>
        <mxCell id="xndJqumdYf-anLgGboN_-45" value="" style="endArrow=none;html=1;rounded=0;" edge="1" parent="1">
          <mxGeometry width="50" height="50" relative="1" as="geometry">
            <mxPoint x="500" y="1000" as="sourcePoint" />
            <mxPoint x="640" y="1000" as="targetPoint" />
          </mxGeometry>
        </mxCell>
        <mxCell id="xndJqumdYf-anLgGboN_-46" value="staf_table" style="text;html=1;align=center;verticalAlign=middle;whiteSpace=wrap;rounded=0;" vertex="1" parent="1">
          <mxGeometry x="539" y="966" width="60" height="30" as="geometry" />
        </mxCell>
        <mxCell id="xndJqumdYf-anLgGboN_-48" value="" style="endArrow=classic;startArrow=classic;html=1;rounded=0;exitX=1;exitY=0.5;exitDx=0;exitDy=0;" edge="1" parent="1" source="xndJqumdYf-anLgGboN_-38">
          <mxGeometry width="50" height="50" relative="1" as="geometry">
            <mxPoint x="490" y="960" as="sourcePoint" />
            <mxPoint x="560" y="960" as="targetPoint" />
            <Array as="points">
              <mxPoint x="560" y="930" />
            </Array>
          </mxGeometry>
        </mxCell>
        <mxCell id="xndJqumdYf-anLgGboN_-49" value="" style="endArrow=none;html=1;rounded=0;" edge="1" parent="1">
          <mxGeometry width="50" height="50" relative="1" as="geometry">
            <mxPoint x="118" y="1143" as="sourcePoint" />
            <mxPoint x="258" y="1143" as="targetPoint" />
          </mxGeometry>
        </mxCell>
        <mxCell id="xndJqumdYf-anLgGboN_-50" value="" style="endArrow=none;html=1;rounded=0;" edge="1" parent="1">
          <mxGeometry width="50" height="50" relative="1" as="geometry">
            <mxPoint x="118" y="1183" as="sourcePoint" />
            <mxPoint x="258" y="1183" as="targetPoint" />
          </mxGeometry>
        </mxCell>
        <mxCell id="xndJqumdYf-anLgGboN_-51" value="Admin_Table" style="text;html=1;align=center;verticalAlign=middle;whiteSpace=wrap;rounded=0;" vertex="1" parent="1">
          <mxGeometry x="157" y="1149" width="60" height="30" as="geometry" />
        </mxCell>
        <mxCell id="xndJqumdYf-anLgGboN_-52" value="" style="endArrow=classic;startArrow=classic;html=1;rounded=0;exitX=0;exitY=0.5;exitDx=0;exitDy=0;" edge="1" parent="1" source="xndJqumdYf-anLgGboN_-40">
          <mxGeometry width="50" height="50" relative="1" as="geometry">
            <mxPoint x="450" y="940" as="sourcePoint" />
            <mxPoint x="180" y="1140" as="targetPoint" />
            <Array as="points">
              <mxPoint x="180" y="1070" />
            </Array>
          </mxGeometry>
        </mxCell>
        <mxCell id="xndJqumdYf-anLgGboN_-64" style="edgeStyle=orthogonalEdgeStyle;rounded=0;orthogonalLoop=1;jettySize=auto;html=1;exitX=0.5;exitY=0;exitDx=0;exitDy=0;entryX=0.5;entryY=1;entryDx=0;entryDy=0;" edge="1" parent="1" source="xndJqumdYf-anLgGboN_-53" target="xndJqumdYf-anLgGboN_-42">
          <mxGeometry relative="1" as="geometry">
            <Array as="points">
              <mxPoint x="425" y="1130" />
            </Array>
          </mxGeometry>
        </mxCell>
        <mxCell id="xndJqumdYf-anLgGboN_-53" value="Admin Panel" style="ellipse;whiteSpace=wrap;html=1;rounded=0;" vertex="1" parent="1">
          <mxGeometry x="300" y="1130" width="80" height="80" as="geometry" />
        </mxCell>
        <mxCell id="xndJqumdYf-anLgGboN_-55" value="" style="endArrow=none;html=1;rounded=0;" edge="1" parent="1">
          <mxGeometry width="50" height="50" relative="1" as="geometry">
            <mxPoint x="473" y="1200" as="sourcePoint" />
            <mxPoint x="613" y="1200" as="targetPoint" />
          </mxGeometry>
        </mxCell>
        <mxCell id="xndJqumdYf-anLgGboN_-56" value="" style="endArrow=none;html=1;rounded=0;" edge="1" parent="1">
          <mxGeometry width="50" height="50" relative="1" as="geometry">
            <mxPoint x="473" y="1240" as="sourcePoint" />
            <mxPoint x="613" y="1240" as="targetPoint" />
          </mxGeometry>
        </mxCell>
        <mxCell id="xndJqumdYf-anLgGboN_-57" value="Item_Table" style="text;html=1;align=center;verticalAlign=middle;whiteSpace=wrap;rounded=0;" vertex="1" parent="1">
          <mxGeometry x="512" y="1206" width="60" height="30" as="geometry" />
        </mxCell>
        <mxCell id="xndJqumdYf-anLgGboN_-58" value="" style="endArrow=none;html=1;rounded=0;" edge="1" parent="1">
          <mxGeometry width="50" height="50" relative="1" as="geometry">
            <mxPoint x="279" y="1241" as="sourcePoint" />
            <mxPoint x="419" y="1241" as="targetPoint" />
          </mxGeometry>
        </mxCell>
        <mxCell id="xndJqumdYf-anLgGboN_-59" value="" style="endArrow=none;html=1;rounded=0;" edge="1" parent="1">
          <mxGeometry width="50" height="50" relative="1" as="geometry">
            <mxPoint x="279" y="1281" as="sourcePoint" />
            <mxPoint x="419" y="1281" as="targetPoint" />
          </mxGeometry>
        </mxCell>
        <mxCell id="xndJqumdYf-anLgGboN_-60" value="Catagory_Table" style="text;html=1;align=center;verticalAlign=middle;whiteSpace=wrap;rounded=0;" vertex="1" parent="1">
          <mxGeometry x="318" y="1247" width="60" height="30" as="geometry" />
        </mxCell>
        <mxCell id="xndJqumdYf-anLgGboN_-61" value="" style="endArrow=classic;startArrow=classic;html=1;rounded=0;entryX=1;entryY=0.5;entryDx=0;entryDy=0;" edge="1" parent="1" target="xndJqumdYf-anLgGboN_-42">
          <mxGeometry width="50" height="50" relative="1" as="geometry">
            <mxPoint x="540" y="1200" as="sourcePoint" />
            <mxPoint x="570" y="1090" as="targetPoint" />
            <Array as="points">
              <mxPoint x="540" y="1120" />
              <mxPoint x="465" y="1120" />
            </Array>
          </mxGeometry>
        </mxCell>
        <mxCell id="xndJqumdYf-anLgGboN_-62" value="" style="endArrow=classic;startArrow=classic;html=1;rounded=0;entryX=0.5;entryY=1;entryDx=0;entryDy=0;" edge="1" parent="1" target="xndJqumdYf-anLgGboN_-53">
          <mxGeometry width="50" height="50" relative="1" as="geometry">
            <mxPoint x="340" y="1240" as="sourcePoint" />
            <mxPoint x="230" y="1210" as="targetPoint" />
          </mxGeometry>
        </mxCell>
        <mxCell id="xndJqumdYf-anLgGboN_-63" value="" style="endArrow=classic;startArrow=classic;html=1;rounded=0;exitX=1;exitY=0.5;exitDx=0;exitDy=0;" edge="1" parent="1" source="xndJqumdYf-anLgGboN_-53">
          <mxGeometry width="50" height="50" relative="1" as="geometry">
            <mxPoint x="420" y="1200" as="sourcePoint" />
            <mxPoint x="530" y="1200" as="targetPoint" />
            <Array as="points">
              <mxPoint x="530" y="1170" />
            </Array>
          </mxGeometry>
        </mxCell>
        <mxCell id="xndJqumdYf-anLgGboN_-66" value="Log_Out" style="whiteSpace=wrap;html=1;rounded=0;" vertex="1" parent="1">
          <mxGeometry x="590" y="1040" width="120" height="60" as="geometry" />
        </mxCell>
      </root>
    </mxGraphModel>
  </diagram>
</mxfile>
